<svg xmlns="http://www.w3.org/2000/svg" style="display: none;">

    <!-- <symbol id="icon-slash" fill="none" viewBox="0 0 15 15" xmlns="http://www.w3.org/2000/svg">
        <path fill-rule="evenodd" clip-rule="evenodd" d="M4.109 14L9.466 1h1.352L5.46 14H4.109z" fill="currentColor" />
    </symbol> -->

    <symbol id="icon-chevron" viewBox="0 0 12.828 7.414" xmlns="http://www.w3.org/2000/svg">
        <path d="M1.414 1.414l5 5 5-5" fill="none" stroke="currentColor" stroke-linecap="round" stroke-linejoin="round" stroke-width="2" />
    </symbol>

    <!-- <symbol id="icon-magnifier" viewBox="0 0 25.621 25.621" xmlns="http://www.w3.org/2000/svg">
        <g fill="none" stroke="#000" stroke-linecap="round" stroke-linejoin="round" stroke-width="3">
            <path d="M21.056 11.278A9.778 9.778 0 1 1 11.278 1.5a9.778 9.778 0 0 1 9.778 9.778z" />
            <path d="M23.5 23.5l-5.317-5.317" />
        </g>
    </symbol> -->

    <symbol id="icon-cross" viewBox="0 0 26.243 26.243" xmlns="http://www.w3.org/2000/svg">
        <g fill="none" stroke="currentColor" stroke-linecap="round" stroke-width="3">
            <path d="M2.121 2.121l22 22" />
            <path d="M24.121 2.121l-22 22" />
        </g>
    </symbol>

    <symbol id="icon-home" xmlns="http://www.w3.org/2000/svg" viewBox="0 0 576 512">
        <!--! Font Awesome Pro 6.2.1 by @fontawesome - https://fontawesome.com License - https://fontawesome.com/license (Commercial License) Copyright 2022 Fonticons, Inc. -->
        <path d="M543.8 287.6c17 0 32-14 32-32.1c1-9-3-17-11-24L512 185V64c0-17.7-14.3-32-32-32H448c-17.7 0-32 14.3-32 32v36.7L309.5 7c-6-5-14-7-21-7s-15 1-22 8L10 231.5c-7 7-10 15-10 24c0 18 14 32.1 32 32.1h32v69.7c-.1 .9-.1 1.8-.1 2.8V472c0 22.1 17.9 40 40 40h16c1.2 0 2.4-.1 3.6-.2c1.5 .1 3 .2 4.5 .2H160h24c22.1 0 40-17.9 40-40V448 384c0-17.7 14.3-32 32-32h64c17.7 0 32 14.3 32 32v64 24c0 22.1 17.9 40 40 40h24 32.5c1.4 0 2.8 0 4.2-.1c1.1 .1 2.2 .1 3.3 .1h16c22.1 0 40-17.9 40-40V455.8c.3-2.6 .5-5.3 .5-8.1l-.7-160.2h32z" />
    </symbol>

    <symbol id="icon-cog" xmlns="http://www.w3.org/2000/svg" viewBox="0 0 512 512">
        <!--! Font Awesome Pro 6.2.1 by @fontawesome - https://fontawesome.com License - https://fontawesome.com/license (Commercial License) Copyright 2022 Fonticons, Inc. -->
        <path d="M495.9 166.6c3.2 8.7 .5 18.4-6.4 24.6l-43.3 39.4c1.1 8.3 1.7 16.8 1.7 25.4s-.6 17.1-1.7 25.4l43.3 39.4c6.9 6.2 9.6 15.9 6.4 24.6c-4.4 11.9-9.7 23.3-15.8 34.3l-4.7 8.1c-6.6 11-14 21.4-22.1 31.2c-5.9 7.2-15.7 9.6-24.5 6.8l-55.7-17.7c-13.4 10.3-28.2 18.9-44 25.4l-12.5 57.1c-2 9.1-9 16.3-18.2 17.8c-13.8 2.3-28 3.5-42.5 3.5s-28.7-1.2-42.5-3.5c-9.2-1.5-16.2-8.7-18.2-17.8l-12.5-57.1c-15.8-6.5-30.6-15.1-44-25.4L83.1 425.9c-8.8 2.8-18.6 .3-24.5-6.8c-8.1-9.8-15.5-20.2-22.1-31.2l-4.7-8.1c-6.1-11-11.4-22.4-15.8-34.3c-3.2-8.7-.5-18.4 6.4-24.6l43.3-39.4C64.6 273.1 64 264.6 64 256s.6-17.1 1.7-25.4L22.4 191.2c-6.9-6.2-9.6-15.9-6.4-24.6c4.4-11.9 9.7-23.3 15.8-34.3l4.7-8.1c6.6-11 14-21.4 22.1-31.2c5.9-7.2 15.7-9.6 24.5-6.8l55.7 17.7c13.4-10.3 28.2-18.9 44-25.4l12.5-57.1c2-9.1 9-16.3 18.2-17.8C227.3 1.2 241.5 0 256 0s28.7 1.2 42.5 3.5c9.2 1.5 16.2 8.7 18.2 17.8l12.5 57.1c15.8 6.5 30.6 15.1 44 25.4l55.7-17.7c8.8-2.8 18.6-.3 24.5 6.8c8.1 9.8 15.5 20.2 22.1 31.2l4.7 8.1c6.1 11 11.4 22.4 15.8 34.3zM256 336c44.2 0 80-35.8 80-80s-35.8-80-80-80s-80 35.8-80 80s35.8 80 80 80z" />
    </symbol>

    <symbol id="icon-folder" xmlns="http://www.w3.org/2000/svg" viewBox="0 0 576 512">
        <!--! Font Awesome Pro 6.2.1 by @fontawesome - https://fontawesome.com License - https://fontawesome.com/license (Commercial License) Copyright 2022 Fonticons, Inc. -->
        <path d="M88.7 223.8L0 375.8V96C0 60.7 28.7 32 64 32H181.5c17 0 33.3 6.7 45.3 18.7l26.5 26.5c12 12 28.3 18.7 45.3 18.7H416c35.3 0 64 28.7 64 64v32H144c-22.8 0-43.8 12.1-55.3 31.8zm27.6 16.1C122.1 230 132.6 224 144 224H544c11.5 0 22 6.1 27.7 16.1s5.7 22.2-.1 32.1l-112 192C453.9 474 443.4 480 432 480H32c-11.5 0-22-6.1-27.7-16.1s-5.7-22.2 .1-32.1l112-192z" />
    </symbol>

    <symbol id="icon-plus" xmlns="http://www.w3.org/2000/svg" viewBox="0 0 448 512">
        <!--! Font Awesome Pro 6.2.1 by @fontawesome - https://fontawesome.com License - https://fontawesome.com/license (Commercial License) Copyright 2022 Fonticons, Inc. -->
        <path d="M256 80c0-17.7-14.3-32-32-32s-32 14.3-32 32V224H48c-17.7 0-32 14.3-32 32s14.3 32 32 32H192V432c0 17.7 14.3 32 32 32s32-14.3 32-32V288H400c17.7 0 32-14.3 32-32s-14.3-32-32-32H256V80z" />
    </symbol>

    <symbol  id="icon-dots" xmlns="http://www.w3.org/2000/svg" viewBox="0 0 128 512">
        <!--! Font Awesome Pro 6.2.1 by @fontawesome - https://fontawesome.com License - https://fontawesome.com/license (Commercial License) Copyright 2022 Fonticons, Inc. -->
        <path d="M64 360c30.9 0 56 25.1 56 56s-25.1 56-56 56s-56-25.1-56-56s25.1-56 56-56zm0-160c30.9 0 56 25.1 56 56s-25.1 56-56 56s-56-25.1-56-56s25.1-56 56-56zM120 96c0 30.9-25.1 56-56 56S8 126.9 8 96S33.1 40 64 40s56 25.1 56 56z"/>
    </symbol>
</svg>