<svg xmlns="http://www.w3.org/2000/svg" style="display: none;">

    <symbol id="icon-arrow" viewBox="0 0 12 12.829" xmlns="http://www.w3.org/2000/svg">
        <g fill="none" stroke="currentColor" stroke-linecap="round" stroke-linejoin="round" stroke-width="2">
            <path d="M1 6.414h10" />
            <path d="M6 1.414l5 5-5 5" />
        </g>
    </symbol>

    <symbol id="icon-slash" fill="none" viewBox="0 0 15 15" xmlns="http://www.w3.org/2000/svg">
        <path fill-rule="evenodd" clip-rule="evenodd" d="M4.109 14L9.466 1h1.352L5.46 14H4.109z" fill="currentColor" />
    </symbol>

    <symbol id="icon-chevron" viewBox="0 0 12.828 7.414" xmlns="http://www.w3.org/2000/svg">
        <path d="M1.414 1.414l5 5 5-5" fill="none" stroke="currentColor" stroke-linecap="round" stroke-linejoin="round" stroke-width="2" />
    </symbol>

    <symbol id="icon-magnifier" viewBox="0 0 25.621 25.621" xmlns="http://www.w3.org/2000/svg">
        <g fill="none" stroke="#000" stroke-linecap="round" stroke-linejoin="round" stroke-width="3">
            <path d="M21.056 11.278A9.778 9.778 0 1 1 11.278 1.5a9.778 9.778 0 0 1 9.778 9.778z" />
            <path d="M23.5 23.5l-5.317-5.317" />
        </g>
    </symbol>

    <symbol id="icon-cross" viewBox="0 0 26.243 26.243" xmlns="http://www.w3.org/2000/svg">
        <g fill="none" stroke="#000" stroke-linecap="round" stroke-width="3">
            <path d="M2.121 2.121l22 22" />
            <path d="M24.121 2.121l-22 22" />
        </g>
    </symbol>

    <symbol id="burger" xmlns="http://www.w3.org/2000/svg" viewBox="0 0 512 512">
        <!--! Font Awesome Pro 6.2.1 by @fontawesome - https://fontawesome.com License - https://fontawesome.com/license (Commercial License) Copyright 2022 Fonticons, Inc. -->
        <path d="M61.1 224C45 224 32 211 32 194.9c0-1.9 .2-3.7 .6-5.6C37.9 168.3 78.8 32 256 32s218.1 136.3 223.4 157.3c.5 1.9 .6 3.7 .6 5.6c0 16.1-13 29.1-29.1 29.1H61.1zM144 128c0-8.8-7.2-16-16-16s-16 7.2-16 16s7.2 16 16 16s16-7.2 16-16zm240 16c8.8 0 16-7.2 16-16s-7.2-16-16-16s-16 7.2-16 16s7.2 16 16 16zM272 96c0-8.8-7.2-16-16-16s-16 7.2-16 16s7.2 16 16 16s16-7.2 16-16zM16 304c0-26.5 21.5-48 48-48H448c26.5 0 48 21.5 48 48s-21.5 48-48 48H64c-26.5 0-48-21.5-48-48zm16 96c0-8.8 7.2-16 16-16H464c8.8 0 16 7.2 16 16v16c0 35.3-28.7 64-64 64H96c-35.3 0-64-28.7-64-64V400z" />
    </symbol>

</svg>