<svg xmlns="http://www.w3.org/2000/svg" style="display: none;">

    <!-- <symbol id="icon-slash" fill="none" viewBox="0 0 15 15" xmlns="http://www.w3.org/2000/svg">
    <path fill-rule="evenodd" clip-rule="evenodd" d="M4.109 14L9.466 1h1.352L5.46 14H4.109z"
    fill="currentColor" />
    </symbol> -->

    <symbol id="icon-chevron" viewBox="0 0 12.828 7.414" xmlns="http://www.w3.org/2000/svg">
        <path d="M1.414 1.414l5 5 5-5" fill="none" stroke="currentColor" stroke-linecap="round"
            stroke-linejoin="round" stroke-width="2" />
    </symbol>

    <!-- <symbol id="icon-magnifier" viewBox="0 0 25.621 25.621" xmlns="http://www.w3.org/2000/svg">
    <g fill="none" stroke="#000" stroke-linecap="round" stroke-linejoin="round" stroke-width="3">
    <path d="M21.056 11.278A9.778 9.778 0 1 1 11.278 1.5a9.778 9.778 0 0 1 9.778 9.778z" />
            <path
    d="M23.5 23.5l-5.317-5.317" />
        </g>
    </symbol> -->

    <symbol id="icon-cross" viewBox="0 0 26.243 26.243" xmlns="http://www.w3.org/2000/svg">
        <g fill="none" stroke="currentColor" stroke-linecap="round" stroke-width="3">
            <path d="M2.121 2.121l22 22" />
            <path d="M24.121 2.121l-22 22" />
        </g>
    </symbol>

    <symbol id="icon-check" xmlns="http://www.w3.org/2000/svg" viewBox="0 0 512 512">
        <!--! Font Awesome Pro 6.2.1 by @fontawesome - https://fontawesome.com License -
        https://fontawesome.com/license (Commercial License) Copyright 2022 Fonticons, Inc. -->
        <path
            d="M470.6 105.4c12.5 12.5 12.5 32.8 0 45.3l-256 256c-12.5 12.5-32.8 12.5-45.3 0l-128-128c-12.5-12.5-12.5-32.8 0-45.3s32.8-12.5 45.3 0L192 338.7 425.4 105.4c12.5-12.5 32.8-12.5 45.3 0z" />
    </symbol>

    <symbol id="icon-trash" xmlns="http://www.w3.org/2000/svg" viewBox="0 0 448 512">
        <!--! Font Awesome Pro 6.2.1 by @fontawesome - https://fontawesome.com License -
        https://fontawesome.com/license (Commercial License) Copyright 2022 Fonticons, Inc. -->
        <path
            d="M135.2 17.7L128 32H32C14.3 32 0 46.3 0 64S14.3 96 32 96H416c17.7 0 32-14.3 32-32s-14.3-32-32-32H320l-7.2-14.3C307.4 6.8 296.3 0 284.2 0H163.8c-12.1 0-23.2 6.8-28.6 17.7zM416 128H32L53.2 467c1.6 25.3 22.6 45 47.9 45H346.9c25.3 0 46.3-19.7 47.9-45L416 128z" />
    </symbol>

    <symbol id="icon-home" xmlns="http://www.w3.org/2000/svg" viewBox="0 0 576 512">
        <!--! Font Awesome Pro 6.2.1 by @fontawesome - https://fontawesome.com License -
        https://fontawesome.com/license (Commercial License) Copyright 2022 Fonticons, Inc. -->
        <path
            d="M543.8 287.6c17 0 32-14 32-32.1c1-9-3-17-11-24L512 185V64c0-17.7-14.3-32-32-32H448c-17.7 0-32 14.3-32 32v36.7L309.5 7c-6-5-14-7-21-7s-15 1-22 8L10 231.5c-7 7-10 15-10 24c0 18 14 32.1 32 32.1h32v69.7c-.1 .9-.1 1.8-.1 2.8V472c0 22.1 17.9 40 40 40h16c1.2 0 2.4-.1 3.6-.2c1.5 .1 3 .2 4.5 .2H160h24c22.1 0 40-17.9 40-40V448 384c0-17.7 14.3-32 32-32h64c17.7 0 32 14.3 32 32v64 24c0 22.1 17.9 40 40 40h24 32.5c1.4 0 2.8 0 4.2-.1c1.1 .1 2.2 .1 3.3 .1h16c22.1 0 40-17.9 40-40V455.8c.3-2.6 .5-5.3 .5-8.1l-.7-160.2h32z" />
    </symbol>

    <symbol id="icon-cog" xmlns="http://www.w3.org/2000/svg" viewBox="0 0 512 512">
        <!--! Font Awesome Pro 6.2.1 by @fontawesome - https://fontawesome.com License -
        https://fontawesome.com/license (Commercial License) Copyright 2022 Fonticons, Inc. -->
        <path
            d="M495.9 166.6c3.2 8.7 .5 18.4-6.4 24.6l-43.3 39.4c1.1 8.3 1.7 16.8 1.7 25.4s-.6 17.1-1.7 25.4l43.3 39.4c6.9 6.2 9.6 15.9 6.4 24.6c-4.4 11.9-9.7 23.3-15.8 34.3l-4.7 8.1c-6.6 11-14 21.4-22.1 31.2c-5.9 7.2-15.7 9.6-24.5 6.8l-55.7-17.7c-13.4 10.3-28.2 18.9-44 25.4l-12.5 57.1c-2 9.1-9 16.3-18.2 17.8c-13.8 2.3-28 3.5-42.5 3.5s-28.7-1.2-42.5-3.5c-9.2-1.5-16.2-8.7-18.2-17.8l-12.5-57.1c-15.8-6.5-30.6-15.1-44-25.4L83.1 425.9c-8.8 2.8-18.6 .3-24.5-6.8c-8.1-9.8-15.5-20.2-22.1-31.2l-4.7-8.1c-6.1-11-11.4-22.4-15.8-34.3c-3.2-8.7-.5-18.4 6.4-24.6l43.3-39.4C64.6 273.1 64 264.6 64 256s.6-17.1 1.7-25.4L22.4 191.2c-6.9-6.2-9.6-15.9-6.4-24.6c4.4-11.9 9.7-23.3 15.8-34.3l4.7-8.1c6.6-11 14-21.4 22.1-31.2c5.9-7.2 15.7-9.6 24.5-6.8l55.7 17.7c13.4-10.3 28.2-18.9 44-25.4l12.5-57.1c2-9.1 9-16.3 18.2-17.8C227.3 1.2 241.5 0 256 0s28.7 1.2 42.5 3.5c9.2 1.5 16.2 8.7 18.2 17.8l12.5 57.1c15.8 6.5 30.6 15.1 44 25.4l55.7-17.7c8.8-2.8 18.6-.3 24.5 6.8c8.1 9.8 15.5 20.2 22.1 31.2l4.7 8.1c6.1 11 11.4 22.4 15.8 34.3zM256 336c44.2 0 80-35.8 80-80s-35.8-80-80-80s-80 35.8-80 80s35.8 80 80 80z" />
    </symbol>

    <symbol id="icon-filter" xmlns="http://www.w3.org/2000/svg" viewBox="0 0 512 512">
        <!--! Font Awesome Pro 6.2.1 by @fontawesome - https://fontawesome.com License -
        https://fontawesome.com/license (Commercial License) Copyright 2022 Fonticons, Inc. -->
        <path
            d="M3.9 54.9C10.5 40.9 24.5 32 40 32H472c15.5 0 29.5 8.9 36.1 22.9s4.6 30.5-5.2 42.5L320 320.9V448c0 12.1-6.8 23.2-17.7 28.6s-23.8 4.3-33.5-3l-64-48c-8.1-6-12.8-15.5-12.8-25.6V320.9L9 97.3C-.7 85.4-2.8 68.8 3.9 54.9z" />
    </symbol>

    <symbol id="icon-folder" xmlns="http://www.w3.org/2000/svg" viewBox="0 0 576 512">
        <!--! Font Awesome Pro 6.2.1 by @fontawesome - https://fontawesome.com License -
        https://fontawesome.com/license (Commercial License) Copyright 2022 Fonticons, Inc. -->
        <path
            d="M88.7 223.8L0 375.8V96C0 60.7 28.7 32 64 32H181.5c17 0 33.3 6.7 45.3 18.7l26.5 26.5c12 12 28.3 18.7 45.3 18.7H416c35.3 0 64 28.7 64 64v32H144c-22.8 0-43.8 12.1-55.3 31.8zm27.6 16.1C122.1 230 132.6 224 144 224H544c11.5 0 22 6.1 27.7 16.1s5.7 22.2-.1 32.1l-112 192C453.9 474 443.4 480 432 480H32c-11.5 0-22-6.1-27.7-16.1s-5.7-22.2 .1-32.1l112-192z" />
    </symbol>

    <symbol id="icon-plus" xmlns="http://www.w3.org/2000/svg" viewBox="0 0 448 512">
        <!--! Font Awesome Pro 6.2.1 by @fontawesome - https://fontawesome.com License -
        https://fontawesome.com/license (Commercial License) Copyright 2022 Fonticons, Inc. -->
        <path
            d="M256 80c0-17.7-14.3-32-32-32s-32 14.3-32 32V224H48c-17.7 0-32 14.3-32 32s14.3 32 32 32H192V432c0 17.7 14.3 32 32 32s32-14.3 32-32V288H400c17.7 0 32-14.3 32-32s-14.3-32-32-32H256V80z" />
    </symbol>

    <symbol id="icon-dots" xmlns="http://www.w3.org/2000/svg" viewBox="0 0 128 512">
        <!--! Font Awesome Pro 6.2.1 by @fontawesome - https://fontawesome.com License -
        https://fontawesome.com/license (Commercial License) Copyright 2022 Fonticons, Inc. -->
        <path
            d="M64 360c30.9 0 56 25.1 56 56s-25.1 56-56 56s-56-25.1-56-56s25.1-56 56-56zm0-160c30.9 0 56 25.1 56 56s-25.1 56-56 56s-56-25.1-56-56s25.1-56 56-56zM120 96c0 30.9-25.1 56-56 56S8 126.9 8 96S33.1 40 64 40s56 25.1 56 56z" />
    </symbol>

    <symbol id="icon-profile" xmlns="http://www.w3.org/2000/svg" viewBox="0 0 448 512">
        <path
            d="M224 256c70.7 0 128-57.3 128-128S294.7 0 224 0S96 57.3 96 128s57.3 128 128 128zm-45.7 48C79.8 304 0 383.8 0 482.3C0 498.7 13.3 512 29.7 512H418.3c16.4 0 29.7-13.3 29.7-29.7C448 383.8 368.2 304 269.7 304H178.3z"
        />
    </symbol>

    <symbol id="icon-logout" xmlns="http://www.w3.org/2000/svg" viewBox="0 0 512 512">
        <!--! Font Awesome Pro 6.2.1 by @fontawesome - https://fontawesome.com License -
        https://fontawesome.com/license (Commercial License) Copyright 2022 Fonticons, Inc. -->
        <path
            d="M160 96c17.7 0 32-14.3 32-32s-14.3-32-32-32H96C43 32 0 75 0 128V384c0 53 43 96 96 96h64c17.7 0 32-14.3 32-32s-14.3-32-32-32H96c-17.7 0-32-14.3-32-32l0-256c0-17.7 14.3-32 32-32h64zM504.5 273.4c4.8-4.5 7.5-10.8 7.5-17.4s-2.7-12.9-7.5-17.4l-144-136c-7-6.6-17.2-8.4-26-4.6s-14.5 12.5-14.5 22v72H192c-17.7 0-32 14.3-32 32l0 64c0 17.7 14.3 32 32 32H320v72c0 9.6 5.7 18.2 14.5 22s19 2 26-4.6l144-136z" />
    </symbol>

    <symbol id="icon-folder-closed" xmlns="http://www.w3.org/2000/svg" viewBox="0 0 512 512">
        <path
            d="M64 480H448c35.3 0 64-28.7 64-64V160c0-35.3-28.7-64-64-64H298.5c-17 0-33.3-6.7-45.3-18.7L226.7 50.7c-12-12-28.3-18.7-45.3-18.7H64C28.7 32 0 60.7 0 96V416c0 35.3 28.7 64 64 64z" />
    </symbol>

    <symbol id="icon-list" xmlns="http://www.w3.org/2000/svg" viewBox="0 0 512 512">
        <path
            d="M40 48C26.7 48 16 58.7 16 72v48c0 13.3 10.7 24 24 24H88c13.3 0 24-10.7 24-24V72c0-13.3-10.7-24-24-24H40zM192 64c-17.7 0-32 14.3-32 32s14.3 32 32 32H480c17.7 0 32-14.3 32-32s-14.3-32-32-32H192zm0 160c-17.7 0-32 14.3-32 32s14.3 32 32 32H480c17.7 0 32-14.3 32-32s-14.3-32-32-32H192zm0 160c-17.7 0-32 14.3-32 32s14.3 32 32 32H480c17.7 0 32-14.3 32-32s-14.3-32-32-32H192zM16 232v48c0 13.3 10.7 24 24 24H88c13.3 0 24-10.7 24-24V232c0-13.3-10.7-24-24-24H40c-13.3 0-24 10.7-24 24zM40 368c-13.3 0-24 10.7-24 24v48c0 13.3 10.7 24 24 24H88c13.3 0 24-10.7 24-24V392c0-13.3-10.7-24-24-24H40z" />
    </symbol>

    <symbol id="icon-square-list" xmlns="http://www.w3.org/2000/svg" viewBox="0 0 576 512">
        <path
            d="M0 96C0 60.7 28.7 32 64 32H512c35.3 0 64 28.7 64 64V416c0 35.3-28.7 64-64 64H64c-35.3 0-64-28.7-64-64V96zM128 288c17.7 0 32-14.3 32-32s-14.3-32-32-32s-32 14.3-32 32s14.3 32 32 32zm32-128c0-17.7-14.3-32-32-32s-32 14.3-32 32s14.3 32 32 32s32-14.3 32-32zM128 384c17.7 0 32-14.3 32-32s-14.3-32-32-32s-32 14.3-32 32s14.3 32 32 32zm96-248c-13.3 0-24 10.7-24 24s10.7 24 24 24H448c13.3 0 24-10.7 24-24s-10.7-24-24-24H224zm0 96c-13.3 0-24 10.7-24 24s10.7 24 24 24H448c13.3 0 24-10.7 24-24s-10.7-24-24-24H224zm0 96c-13.3 0-24 10.7-24 24s10.7 24 24 24H448c13.3 0 24-10.7 24-24s-10.7-24-24-24H224z" />
    </symbol>

    <symbol id="icon-oxygen" xmlns="http://www.w3.org/2000/svg" viewBox="0 0 123 30">
        <g fill-rule="evenodd">
            <path fill-rule="nonzero"
                d="M12.82 8.609c0-2.609-.845-3.652-3.904-3.652H8.72C5.727 4.957 4.816 6 4.816 8.609V13.5c0 2.609.846 3.652 3.905 3.652h.195c2.994 0 3.905-1.043 3.905-3.652V8.609zM8.396 20.804c-6.703 0-8.33-3.195-8.33-7.956V9.13c0-4.695 1.692-7.956 8.33-7.956h.846c6.703 0 8.33 3.196 8.33 7.956v3.718c0 4.695-1.692 7.956-8.33 7.956h-.846z"></path>
            <path
                d="m33.841 20.674-4.49-6.522-4.49 6.522c-.066.065-.13.13-.261.13h-4.686c-.26 0-.39-.326-.26-.521l6.768-9.066-6.638-8.804c-.195-.196 0-.522.26-.522h4.686c.13 0 .195.066.26.13l4.36 6.327 4.361-6.326c.065-.065.13-.13.26-.13h4.686c.26 0 .456.325.26.521l-6.638 8.804 6.769 9.066c.195.195 0 .521-.26.521h-4.686c-.13 0-.196-.065-.26-.13M44.059 26.674c-.065-.196.065-.326.26-.391 2.929-.783 4.36-2.022 5.076-4.044l.52-1.5H48.81a.358.358 0 0 1-.326-.196L41.716 2.348c-.065-.196.065-.457.325-.457h4.49a.36.36 0 0 1 .326.196l4.62 12.717 4.686-12.717a.358.358 0 0 1 .326-.196h4.425c.26 0 .39.261.326.457l-7.55 20.217c-1.431 3.783-2.863 6-8.395 7.37-.195.065-.325-.065-.39-.261l-.846-3z"></path>
            <path fill-rule="nonzero"
                d="M72.238 25.826c2.994 0 4.686-.848 4.686-3 0-1.956-1.107-2.543-3.32-2.543h-4.49c-1.887 0-2.733 1.63-2.733 2.804v.196c0 1.695 1.432 2.543 4.165 2.543h1.692zm-.195-8.935h2.147c3.905 0 7.224 1.5 7.224 5.74 0 4.5-3.514 6.652-9.566 6.652H69.96c-5.271 0-8.07-1.957-8.07-5.218v-.195c.066-1.63.651-4.566 3.254-5.805 1.627-.978 4.36-1.174 6.899-1.174zM96.187 7.891c0-2.021-.91-2.934-3.319-2.934h-.716c-2.408 0-3.384.847-3.384 2.934v1.305h7.42V7.89zm4.686 11.152c.065.196-.065.392-.195.392-1.627.587-5.076 1.37-8.851 1.37-5.141 0-7.81-1.762-7.81-6.979V8.74c0-4.696 2.278-7.5 7.81-7.5h1.497c5.401 0 7.68 2.804 7.68 7.565V12c0 .196-.131.326-.326.326H88.833v1.63c0 2.218.846 3 3.19 3 2.537 0 5.4-.456 7.548-1.108.196-.065.326.065.39.195l.912 3z"></path>
            <path
                d="M117.989 20.152c-.195 0-.326-.13-.326-.326V8.283c0-1.957-.39-3.261-2.473-3.261-1.561 0-3.709.782-4.946 1.239v13.5c0 .196-.13.326-.325.326h-4.1c-.195 0-.325-.13-.325-.326V1.826c0-.196.13-.326.325-.326h2.994c.13 0 .26.065.325.196l.52 1.174c1.628-.718 3.905-1.696 6.509-1.696 4.88 0 6.312 2.87 6.312 6.522V19.76c0 .196-.13.326-.325.326h-4.165v.065z"></path>
            <path fill-rule="nonzero"
                d="M73.084 10.5c2.603 0 3.45-1.24 3.45-3.26 0-1.892-.977-3.262-3.45-3.262h-1.562c-2.408 0-3.384 1.305-3.384 3.261 0 2.022.846 3.261 3.384 3.261h1.562zm8.33-3c0 4.435-2.993 6.457-8.59 6.457H70.35c-.456 0-.781.13-.976.26-3.124 1.566-5.272 1.5-5.467 1.305-.39-.392.586-1.044 1.106-1.565.651-.653.716-.914.456-1.174l-.26-.261c-1.302-1.109-1.953-3-1.953-4.892 0-4.434 2.864-6.978 8.656-6.978h.91c2.604-.065 8.591.783 8.591 6.848z"></path>
        </g>
    </symbol>
</svg>